<svg width="348" height="88" viewBox="0 0 348 88" fill="none" xmlns="http://www.w3.org/2000/svg">
  <defs>
    <linearGradient id="sa_bg" x1="10" y1="14" x2="124" y2="78" gradientUnits="userSpaceOnUse">
      <stop stop-color="#0F766E"/>
      <stop offset="0.58" stop-color="#0A4E49"/>
      <stop offset="1" stop-color="#8C5B14"/>
    </linearGradient>
    <linearGradient id="sa_glow" x1="76" y1="18" x2="122" y2="70" gradientUnits="userSpaceOnUse">
      <stop stop-color="#F8D58C" stop-opacity="0.9"/>
      <stop offset="1" stop-color="#F8D58C" stop-opacity="0"/>
    </linearGradient>
  </defs>

  <rect x="8" y="8" width="332" height="72" rx="22" fill="white"/>
  <rect x="16" y="14" width="112" height="60" rx="18" fill="url(#sa_bg)"/>
  <rect x="16" y="14" width="112" height="60" rx="18" fill="url(#sa_glow)"/>

  <path d="M46 29.5L72 20L98 29.5V44.5C98 55.7 87.8 64.8 72 69C56.2 64.8 46 55.7 46 44.5V29.5Z" fill="white" fill-opacity="0.98"/>
  <path d="M59 43.5C63 38.1 67.8 35.4 72 35.4C76.2 35.4 81 38.1 85 43.5C81 48.9 76.2 51.6 72 51.6C67.8 51.6 63 48.9 59 43.5Z" fill="#0F766E"/>
  <circle cx="72" cy="43.5" r="4.2" fill="white"/>
  <path d="M71.8 55.4L65.9 49.7L68.8 46.8L71.7 49.7L78.7 42.7L81.6 45.6L71.8 55.4Z" fill="#0F766E"/>

  <text x="142" y="41" fill="#083D38" font-family="Arial, Helvetica, sans-serif" font-size="31" font-weight="700" letter-spacing="-0.6">
    SecureAware
  </text>
  <text x="142" y="61" fill="#6B7280" font-family="Arial, Helvetica, sans-serif" font-size="12" font-weight="700" letter-spacing="2.3">
    HUMAN RISK PLATFORM
  </text>
</svg>
